<?xml version="1.0" encoding="UTF-8"?>
<!-- 2015-11-20 22:57:51 Generated by QCAD SVG Exporter -->
<svg width="912.5mm" height="351.25mm" viewBox="0 -551.25 912.5 351.25" version="1.1" xmlns="http://www.w3.org/2000/svg" style="stroke-linecap:round;stroke-linejoin:round;fill:none">
    <g transform="scale(1,-1)">
        <!-- Line -->
        <path d="M450.09722608292793,499.71541309551355 L450.09722608292793,349.71541309551355 " style="stroke:#000000;stroke-width:0.25;"/>
        <!-- Line -->
        <path d="M450.09722608292793,349.71541309551355 L0.097226082927939,349.71541309551355 " style="stroke:#000000;stroke-width:0.25;"/>
        <!-- Line -->
        <path d="M0.097226082927939,349.71541309551355 L0.097226082927939,499.71541309551355 " style="stroke:#000000;stroke-width:0.25;"/>
        <!-- Circle -->
        <circle cx="125" cy="473.125" r="3.75" style="stroke:#000000;stroke-width:0.25;"/>
        <!-- Circle -->
        <circle cx="265" cy="473.125" r="3.75" style="stroke:#000000;stroke-width:0.25;"/>
        <!-- Circle -->
        <circle cx="195" cy="473.125" r="3.75" style="stroke:#000000;stroke-width:0.25;"/>
        <!-- Circle -->
        <circle cx="55" cy="473.125" r="3.75" style="stroke:#000000;stroke-width:0.25;"/>
        <!-- Circle -->
        <circle cx="125" cy="403.125" r="3.75" style="stroke:#000000;stroke-width:0.25;"/>
        <!-- Circle -->
        <circle cx="265" cy="403.125" r="3.75" style="stroke:#000000;stroke-width:0.25;"/>
        <!-- Circle -->
        <circle cx="195" cy="403.125" r="3.75" style="stroke:#000000;stroke-width:0.25;"/>
        <!-- Circle -->
        <circle cx="55" cy="403.125" r="3.75" style="stroke:#000000;stroke-width:0.25;"/>
        <!-- Circle -->
        <circle cx="400" cy="443.125" r="3.75" style="stroke:#000000;stroke-width:0.25;"/>
        <!-- Circle -->
        <circle cx="330" cy="443.125" r="3.75" style="stroke:#000000;stroke-width:0.25;"/>
        <!-- Circle -->
        <circle cx="125" cy="450.625" r="7.5" style="stroke:#000000;stroke-width:0.25;"/>
        <!-- Circle -->
        <circle cx="265" cy="450.625" r="7.5" style="stroke:#000000;stroke-width:0.25;"/>
        <!-- Circle -->
        <circle cx="195" cy="450.625" r="7.5" style="stroke:#000000;stroke-width:0.25;"/>
        <!-- Circle -->
        <circle cx="55" cy="450.625" r="7.5" style="stroke:#000000;stroke-width:0.25;"/>
        <!-- Circle -->
        <circle cx="125" cy="380.625" r="7.5" style="stroke:#000000;stroke-width:0.25;"/>
        <!-- Circle -->
        <circle cx="265" cy="380.625" r="7.5" style="stroke:#000000;stroke-width:0.25;"/>
        <!-- Circle -->
        <circle cx="195" cy="380.625" r="7.5" style="stroke:#000000;stroke-width:0.25;"/>
        <!-- Circle -->
        <circle cx="55" cy="380.625" r="7.5" style="stroke:#000000;stroke-width:0.25;"/>
        <!-- Circle -->
        <circle cx="400" cy="420.625" r="7.5" style="stroke:#000000;stroke-width:0.25;"/>
        <!-- Circle -->
        <circle cx="330" cy="420.625" r="7.5" style="stroke:#000000;stroke-width:0.25;"/>
        <!-- Line -->
        <path d="M0.097226082927939,499.71541309551355 L450.09722608292793,499.71541309551355 " style="stroke:#000000;stroke-width:0.25;"/>
        <!-- Aligned Dimension -->
        <g>
            <path d="M0.09722608292794024,520 L25.09722608292794,524.1628465777284 L25.09722608292794,515.8371534222716 Z" style="stroke:#000000;stroke-width:0.25;fill:#000000;fill-rule:evenodd;"/>
            <path d="M450.09722608292793,520 L425.09722608292793,515.8371534222716 L425.09722608292793,524.1628465777284 Z" style="stroke:#000000;stroke-width:0.25;fill:#000000;fill-rule:evenodd;"/>
            <g>
                <path d="M218.1527816384835,526.25 L218.1527816384835,537.3611111111111 M222.31944830515016,531.8055555555555 L208.43055941626125,531.8055555555555 L213.98611497181685,551.25" style="stroke:#000000;stroke-width:0.25;"/>
                <path d="M241.76389274959462,551.25 L230.6527816384835,551.25 L230.6527816384835,540.1388888888889 L236.20833719403905,540.1388888888889 M241.76389274959462,534.5833333333334 C241.76389274959462,537.6515819433333 239.27658580403903,540.1388888888889 236.20833719403905,540.1388888888889 M241.76389274959462,534.5833333333334 L241.76389274959462,531.8055555555555 M236.20833719403905,526.25 C239.27658580403903,526.25 241.76389274959462,528.7373069455556 241.76389274959462,531.8055555555555 M236.20833719403905,526.25 L230.6527816384835,526.25" style="stroke:#000000;stroke-width:0.25;"/>
            </g>
            <path d="M0.09722608292793937,505.9654130955135 L0.09722608292794101,532.5 M450.09722608292793,505.9654130955135 L450.09722608292793,532.5 M0.09722608292794024,520 L450.09722608292793,520 " style="stroke:#000000;stroke-width:0.25;"/>
        </g>
        <!-- Aligned Dimension -->
        <g>
            <path d="M505.40855339356034,349.71541309551355 L501.2457068158319,374.71541309551355 L509.57139997128877,374.71541309551355 Z" style="stroke:#000000;stroke-width:0.25;fill:#000000;fill-rule:evenodd;"/>
            <path d="M505.40855339356034,499.7154130955135 L509.57139997128877,474.7154130955135 L501.2457068158319,474.7154130955135 Z" style="stroke:#000000;stroke-width:0.25;fill:#000000;fill-rule:evenodd;"/>
            <g>
                <path d="M479.71410894911594,412.21541309551355 L474.15855339356034,417.7709686510691 L499.15855339356034,417.7709686510691" style="stroke:#000000;stroke-width:0.25;"/>
                <path d="M474.15855339356034,437.21541309551355 L474.15855339356034,426.1043019844024 L485.2696645046715,426.1043019844024 L485.2696645046715,431.659857539958 M490.825220060227,437.21541309551355 C487.75697145022707,437.21541309551355 485.2696645046715,434.728106149958 485.2696645046715,431.659857539958 M490.825220060227,437.21541309551355 L493.6029978380048,437.21541309551355 M499.15855339356034,431.659857539958 C499.15855339356034,434.728106149958 496.6712464480048,437.21541309551355 493.6029978380048,437.21541309551355 M499.15855339356034,431.659857539958 L499.15855339356034,426.1043019844024" style="stroke:#000000;stroke-width:0.25;"/>
            </g>
            <path d="M456.34722608292793,349.71541309551355 L517.9085533935604,349.71541309551355 M456.34722608292793,499.7154130955135 L517.9085533935604,499.7154130955135 M505.40855339356034,349.71541309551355 L505.40855339356034,499.7154130955135 " style="stroke:#000000;stroke-width:0.25;"/>
        </g>
        <!-- Line -->
        <path d="M0,300 L450,300 " style="stroke:#000000;stroke-width:0.25;"/>
        <!-- Line -->
        <path d="M0,200 L450,200 " style="stroke:#000000;stroke-width:0.25;"/>
        <!-- Line -->
        <path d="M450,200 L450,300 " style="stroke:#000000;stroke-width:0.25;"/>
        <!-- Line -->
        <path d="M0,200 L0,300 " style="stroke:#000000;stroke-width:0.25;"/>
        <!-- Circle -->
        <!-- Circle -->
        <!-- Circle -->
        <!-- Circle -->
        <!-- Circle -->
        <!-- Circle -->
        <circle cx="40" cy="270" r="10" style="stroke:#000000;stroke-width:0.25;"/>
        <!-- Circle -->
        <circle cx="40" cy="230" r="10" style="stroke:#000000;stroke-width:0.25;"/>
        <!-- Circle -->
        <circle cx="80" cy="270" r="10" style="stroke:#000000;stroke-width:0.25;"/>
        <!-- Circle -->
        <circle cx="80" cy="230" r="10" style="stroke:#000000;stroke-width:0.25;"/>
        <!-- Circle -->
        <circle cx="120" cy="270" r="10" style="stroke:#000000;stroke-width:0.25;"/>
        <!-- Circle -->
        <circle cx="120" cy="230" r="10" style="stroke:#000000;stroke-width:0.25;"/>
        <!-- Circle -->
        <circle cx="160" cy="270" r="10" style="stroke:#000000;stroke-width:0.25;"/>
        <!-- Circle -->
        <circle cx="160" cy="230" r="10" style="stroke:#000000;stroke-width:0.25;"/>
        <!-- Circle -->
        <circle cx="200" cy="270" r="10" style="stroke:#000000;stroke-width:0.25;"/>
        <!-- Circle -->
        <circle cx="200" cy="230" r="10" style="stroke:#000000;stroke-width:0.25;"/>
        <!-- Circle -->
        <circle cx="240" cy="230" r="10" style="stroke:#000000;stroke-width:0.25;"/>
        <!-- Circle -->
        <circle cx="240" cy="270" r="10" style="stroke:#000000;stroke-width:0.25;"/>
        <!-- Circle -->
        <circle cx="280" cy="230" r="10" style="stroke:#000000;stroke-width:0.25;"/>
        <!-- Circle -->
        <circle cx="280" cy="270" r="10" style="stroke:#000000;stroke-width:0.25;"/>
        <!-- Circle -->
        <circle cx="320" cy="270" r="10" style="stroke:#000000;stroke-width:0.25;"/>
        <!-- Circle -->
        <circle cx="320" cy="230" r="10" style="stroke:#000000;stroke-width:0.25;"/>
        <!-- Circle -->
        <circle cx="400" cy="270" r="10" style="stroke:#000000;stroke-width:0.25;"/>
        <!-- Circle -->
        <circle cx="400" cy="230" r="10" style="stroke:#000000;stroke-width:0.25;"/>
        <!-- Aligned Dimension -->
        <g>
            <path d="M510,200 L505.83715342227157,225 L514.1628465777284,225 Z" style="stroke:#000000;stroke-width:0.25;fill:#000000;fill-rule:evenodd;"/>
            <path d="M510,300 L514.1628465777284,275 L505.83715342227157,275 Z" style="stroke:#000000;stroke-width:0.25;fill:#000000;fill-rule:evenodd;"/>
            <g>
                <path d="M484.30555555555554,237.5 L478.75,243.05555555555557 L503.75,243.05555555555557" style="stroke:#000000;stroke-width:0.25;"/>
                <path d="M480.13938287550474,259.49063776306946 L480.1391259827571,259.49090787053575 C479.30332247215836,258.9519076098547 478.75,258.0127937211026 478.75,256.94444444444446 C478.75,255.87680782333794 479.3025845172227,254.93823423152713 480.1372474495281,254.39919333616058 M480.1308127375947,254.40190286450107 L480.1300935852902,254.40144924729674 C481.74132234960206,253.19414574285074 483.6342277021095,252.34263810990046 485.6883959838368,251.96402150582696 M496.8050664875424,251.96521365068787 L496.8074767575416,251.96326010994895 C498.868383174296,252.34379147051087 500.7599024944351,253.19501923829102 502.3697174841344,254.4013076778701 M502.3623943033561,254.39939556163807 L502.3626496711475,254.39912689182773 C503.1974608840485,254.9383113481103 503.75,255.87685168364703 503.75,256.94444444444446 C503.75,258.01208106555094 503.1974154827773,258.9506546573618 502.36275255047184,259.48969555272834 M502.3691872624053,259.4858749132767 L502.3699064147098,259.48632853048105 C500.75867765039794,260.6936320349271 498.8657722978905,261.5451396678773 496.81160401616324,261.9237562719508 M496.81239606697346,261.9195870603186 L496.8254131733597,261.92232348343975 C495.05013775975374,262.3013760171066 493.216319993871,262.5 491.3361111111111,262.5 C491.3072959503073,262.5 491.27849168544395,262.49995334893305 491.25015749743517,262.4998616008206 M491.25508215711164,262.49984083755976 L491.2555731103016,262.49984252862293 C491.2246995467066,262.49994803723735 491.19430028607445,262.5 491.1638888888889,262.5 C489.2825355083744,262.5 487.4476297391926,262.3011341355883 485.6867352830963,261.9249181907768 M485.6926425512812,261.92213931573855 L485.69023008810206,261.9240947934944 C483.6325925153295,261.543793874091 481.7438790891401,260.6942810017463 480.1358769714484,259.4906597818045 M491.24491784288836,251.3890480513291 L491.24442688969845,251.38904636026595 C491.27530045329354,251.38894085165157 491.30569971392555,251.38888888888889 491.3361111111111,251.38888888888889 C493.21904560431733,251.38888888888889 495.05545438308894,251.5880891524311 496.8177265326608,251.9649229614708 M485.68760393302654,251.9693018285703 L485.67458682664034,251.96656540544916 C487.44986224024626,251.58751287178234 489.283680006129,251.38888888888889 491.1638888888889,251.38888888888889 C491.1944625909021,251.38888888888889 491.22502402647115,251.38894140777944 491.2550865868418,251.3890446932336" style="stroke:#000000;stroke-width:0.25;"/>
            </g>
            <path d="M456.25,200 L522.5,200 M456.25,300 L522.5,300 M510,200 L510,300 " style="stroke:#000000;stroke-width:0.25;"/>
        </g>
        <!-- Spline -->
        <path d="M690,380 C790,420 840,420 840,420" style="stroke:#000000;stroke-width:0.25;"/>
        <!-- Line -->
        <path d="M690,380 L690,320 " style="stroke:#000000;stroke-width:0.25;"/>
        <!-- Line -->
        <path d="M690,320 L840,320 " style="stroke:#000000;stroke-width:0.25;"/>
        <!-- Line -->
        <path d="M840,320 L840,420 " style="stroke:#000000;stroke-width:0.25;"/>
        <!-- Aligned Dimension -->
        <g>
            <path d="M690,270 L715,274.16284657772843 L715,265.83715342227157 Z" style="stroke:#000000;stroke-width:0.25;fill:#000000;fill-rule:evenodd;"/>
            <path d="M840,270 L815,265.83715342227157 L815,274.16284657772843 Z" style="stroke:#000000;stroke-width:0.25;fill:#000000;fill-rule:evenodd;"/>
            <g>
                <path d="M752.5,295.69444444444446 L758.0555555555555,301.25 L758.0555555555555,276.25" style="stroke:#000000;stroke-width:0.25;"/>
                <path d="M777.5,301.25 L766.3888888888889,301.25 L766.3888888888889,290.1388888888889 L771.9444444444445,290.1388888888889 M777.5,284.5833333333333 C777.5,287.6515819433333 775.0126930544444,290.1388888888889 771.9444444444445,290.1388888888889 M777.5,284.5833333333333 L777.5,281.80555555555554 M771.9444444444445,276.25 C775.0126930544444,276.25 777.5,278.73730694555553 777.5,281.80555555555554 M771.9444444444445,276.25 L766.3888888888889,276.25" style="stroke:#000000;stroke-width:0.25;"/>
            </g>
            <path d="M690,313.75 L690,257.5 M840,313.75 L840,257.5 M690,270 L840,270 " style="stroke:#000000;stroke-width:0.25;"/>
        </g>
        <!-- Aligned Dimension -->
        <g>
            <path d="M900,320 L895.8371534222716,345 L904.1628465777284,345 Z" style="stroke:#000000;stroke-width:0.25;fill:#000000;fill-rule:evenodd;"/>
            <path d="M900,420 L904.1628465777284,395 L895.8371534222716,395 Z" style="stroke:#000000;stroke-width:0.25;fill:#000000;fill-rule:evenodd;"/>
            <g>
                <path d="M874.3055555555555,357.5 L868.75,363.05555555555554 L893.75,363.05555555555554" style="stroke:#000000;stroke-width:0.25;"/>
                <path d="M870.1393828755047,379.49063776306946 L870.1391259827572,379.4909078705358 C869.3033224721582,378.95190760985474 868.75,378.0127937211026 868.75,376.94444444444446 C868.75,375.8768078233379 869.3025845172226,374.93823423152713 870.1372474495281,374.3991933361606 M870.1308127375946,374.4019028645011 L870.1300935852902,374.40144924729674 C871.741322349602,373.1941457428507 873.6342277021095,372.34263810990046 875.6883959838367,371.96402150582696 M886.8050664875425,371.96521365068793 L886.8074767575416,371.9632601099489 C888.868383174296,372.34379147051084 890.7599024944351,373.195019238291 892.3697174841344,374.40130767787014 M892.362394303356,374.3993955616381 L892.3626496711474,374.3991268918278 C893.1974608840484,374.93831134811023 893.75,375.8768516836471 893.75,376.94444444444446 C893.75,378.01208106555094 893.1974154827774,378.9506546573617 892.3627525504719,379.48969555272834 M892.3691872624054,379.4858749132767 L892.3699064147098,379.4863285304811 C890.758677650398,380.6936320349271 888.8657722978905,381.5451396678773 886.8116040161633,381.9237562719508 M886.8123960669734,381.9195870603186 L886.8254131733597,381.92232348343975 C885.0501377597537,382.3013760171066 883.2163199938711,382.5 881.3361111111111,382.5 C881.3072959503073,382.5 881.278491685444,382.499953348933 881.2501574974352,382.4998616008206 M881.2550821571117,382.49984083755976 L881.2555731103016,382.49984252862293 C881.2246995467065,382.49994803723735 881.1943002860745,382.5 881.1638888888889,382.5 C879.2825355083744,382.5 877.4476297391926,382.3011341355883 875.6867352830964,381.9249181907768 M875.6926425512812,381.9221393157386 L875.690230088102,381.9240947934944 C873.6325925153295,381.543793874091 871.7438790891401,380.6942810017463 870.1358769714484,379.4906597818045 M881.2449178428883,371.3890480513291 L881.2444268896984,371.389046360266 C881.2753004532935,371.38894085165157 881.3056997139256,371.38888888888886 881.3361111111111,371.38888888888886 C883.2190456043173,371.38888888888886 885.055454383089,371.58808915243105 886.8177265326608,371.9649229614708 M875.6876039330266,371.96930182857034 L875.6745868266403,371.96656540544916 C877.4498622402463,371.58751287178234 879.2836800061291,371.38888888888886 881.1638888888889,371.38888888888886 C881.194462590902,371.38888888888886 881.2250240264711,371.38894140777944 881.2550865868418,371.3890446932336" style="stroke:#000000;stroke-width:0.25;"/>
            </g>
            <path d="M846.25,320 L912.5,320 M846.25,420 L912.5,420 M900,320 L900,420 " style="stroke:#000000;stroke-width:0.25;"/>
        </g>
        <!-- Aligned Dimension -->
        <g>
            <path d="M650,320 L654.1628465777284,295 L645.8371534222716,295 Z" style="stroke:#000000;stroke-width:0.25;fill:#000000;fill-rule:evenodd;"/>
            <path d="M650,380 L645.8371534222716,405 L654.1628465777284,405 Z" style="stroke:#000000;stroke-width:0.25;fill:#000000;fill-rule:evenodd;"/>
            <g>
                <path d="M618.7508073407332,352.77777777777777 L618.7487692628597,352.77575793573567 C621.6314545727514,347.7947876367676 627.0167520314566,344.44444444444446 633.1845640704738,344.44444444444446 L638.1956751815849,344.44444444444446 C641.2639237915848,344.44444444444446 643.7512307371405,346.93175139 643.7512307371405,350 C643.7512307371405,353.06824861 641.2639237915848,355.55555555555554 638.1956751815849,355.55555555555554 L635.4178974038072,355.55555555555554 C632.3496487938072,355.55555555555554 629.8623418482516,353.06824861 629.8623418482516,350 L629.8623418482516,344.7788888888889" style="stroke:#000000;stroke-width:0.25;"/>
            </g>
            <path d="M683.75,320 L637.5,320 M683.75,380 L637.5,380 M650,270 L650,430 " style="stroke:#000000;stroke-width:0.25;"/>
        </g>
        <!-- Text: Bypass -->
        <g>
            <path d="M380,390 L380,400 L383.75170532060025,400 C384.51568894952254,400 385.1284674852206,399.8988176443838 385.5900409276944,399.6964529331515 C386.05161437016824,399.49408822191907 386.4131423374261,399.1825829922692 386.674624829468,398.76193724420193 C386.9361073215098,398.3412914961346 387.0668485675307,397.90131878126425 387.0668485675307,397.44201909959077 C387.0668485675307,397.0145520691224 386.95088676671213,396.61209640745795 386.7189631650751,396.2346521145975 C386.487039563438,395.8572078217372 386.1368804001819,395.5525238744884 385.668485675307,395.32060027285127 C386.2733060482037,395.1432469304229 386.7382901318781,394.84083674397453 387.06343792633015,394.41336971350614 C387.38858572078215,393.9859026830378 387.55115961800817,393.481127785357 387.55115961800817,392.89904502046386 C387.55115961800817,392.4306502955889 387.4522510231924,391.99522510231924 387.2544338335607,391.5927694406548 C387.05661664392903,391.19031377899046 386.81218735788997,390.8799454297408 386.5211459754434,390.66166439290583 C386.2301045929968,390.44338335607097 385.8651659845384,390.27853569804455 385.4263301500682,390.1671214188267 C384.98749431559804,390.0557071396089 384.44974988631196,390 383.8130968622101,390 Z M381.3233287858117,395.79809004092766 L383.48567530695766,395.79809004092766 C384.0723055934516,395.79809004092766 384.4929513415189,395.8367439745339 384.74761255115965,395.91405184174624 C385.0841291496135,396.0140973169622 385.337653478854,396.18008185538883 385.50818553888126,396.41200545702594 C385.6787175989086,396.643929058663 385.76398362892223,396.9349704411096 385.76398362892223,397.2851296043656 C385.76398362892223,397.61709868121875 385.6844020009095,397.9092769440655 385.525238744884,398.16166439290583 C385.36607548885854,398.41405184174624 385.13869940882216,398.5868576625739 384.84311050477487,398.68008185538883 C384.5475216007276,398.7733060482037 384.0404729422465,398.81991814461117 383.3219645293315,398.81991814461117 L381.3233287858117,398.81991814461117 Z M381.3233287858117,391.18008185538883 L383.8130968622101,391.18008185538883 C384.24056389267844,391.18008185538883 384.5407003183265,391.1959981809913 384.7135061391542,391.22783083219645 C385.0181900864029,391.2824010914052 385.27285129604365,391.37335152341973 385.4774897680764,391.5006821282401 C385.68212824010914,391.62801273306053 385.8503865393361,391.81332423829014 385.98226466575716,392.05661664392903 C386.11414279217826,392.299909049568 386.18008185538883,392.58071850841293 386.18008185538883,392.89904502046386 C386.18008185538883,393.2719417917235 386.08458390177356,393.59595270577535 385.89358799454294,393.87107776261934 C385.70259208731244,394.1462028194634 385.43769895407,394.33947248749433 385.0989085948158,394.45088676671213 C384.76011823556166,394.56230104593 384.2723965438836,394.6180081855389 383.6357435197817,394.6180081855389 L381.3233287858117,394.6180081855389 Z M389.40624802783617,387.2100954979536 L389.26982237981434,388.3628922237381 C389.53812615425727,388.29013187812643 389.7723235166947,388.2537517053206 389.9724144671268,388.2537517053206 C390.24526576317044,388.2537517053206 390.46354680000536,388.2992269213279 390.62725757763155,388.39017735334244 C390.79096835525775,388.481127785357 390.9251202424792,388.60845839017736 391.0297132392959,388.77216916780355 C391.1070211065083,388.89495225102326 391.23207795052826,389.19963619827195 391.40488377135597,389.6862210095498 C391.4276213793596,389.7544338335607 391.4640015521654,389.8544793087767 391.51402428977343,389.9863574351979 L388.7650474821336,397.2442019099591 L390.0883762679453,397.2442019099591 L391.59587967858647,393.04911323328787 C391.7914231074178,392.51705320600274 391.96650268904585,391.95770804911325 392.12111842347053,391.37107776261934 C392.26209159309315,391.9349704411096 392.43034989232,392.4852205547976 392.62589332115135,393.0218281036835 L394.17432442619906,397.2442019099591 L395.4021552583955,397.2442019099591 L392.6463571683546,389.8772169167803 C392.35076826430725,389.08140063665303 392.12111842347053,388.5334242837654 391.95740764584434,388.2332878581173 C391.7391266090095,387.82855843565255 391.48901292096946,387.53183265120515 391.2070665817243,387.34311050477487 C390.9251202424792,387.1543883583447 390.58860364402534,387.06002728512965 390.19751678636277,387.06002728512965 C389.961045663125,387.06002728512965 389.69728941028274,387.1100500227376 389.40624802783617,387.2100954979536 M396.41773235476626,387.2237380627558 L396.41773235476626,397.2442019099591 L397.53642266854524,397.2442019099591 L397.53642266854524,396.3028649386084 C397.80017892138744,396.6712141882674 398.0980415862351,396.9474761255116 398.43001066308824,397.13165075034107 C398.76197973994135,397.31582537517056 399.1644354016058,397.4079126875853 399.63737764808144,397.4079126875853 C400.2558405857804,397.4079126875853 400.8015431778677,397.2487494315598 401.27448542434337,396.9304229195089 C401.74742767081904,396.61209640745795 402.1044081164762,396.1630286493861 402.3454267613147,395.58321964529335 C402.5864454061533,395.00341064120056 402.70695472857255,394.36789449749887 402.70695472857255,393.6766712141883 C402.70695472857255,392.9354251932697 402.5739397217513,392.2680763983629 402.3079097081087,391.674624829468 C402.04187969446616,391.081173260573 401.6553403584043,390.62642110050024 401.1482916999232,390.3103683492497 C400.641243041442,389.9943155979991 400.1080461337568,389.8362892223738 399.5487009768672,389.8362892223738 C399.13942403280174,389.8362892223738 398.77221166354303,389.9226921327876 398.4470638690909,390.0954979536153 C398.12191607463893,390.2683037744429 397.8547491805962,390.4865848112779 397.6455631869627,390.75034106412005 L397.6455631869627,387.2237380627558 Z M397.5296013861442,393.581173260573 C397.5296013861442,392.6489313324238 397.71832353257435,391.9599818099136 398.09576782543473,391.51432469304234 C398.4732121182952,391.068667576171 398.9302380391683,390.84583901773533 399.4668455880542,390.84583901773533 C400.0125481801415,390.84583901773533 400.4798060246162,391.0766257389723 400.8686191214784,391.53819918144615 C401.2574322183406,391.99977262391997 401.45183876677174,392.7148703956344 401.45183876677174,393.68349249658934 C401.45183876677174,394.6066393815371 401.26197973994135,395.2978626648476 400.88226168628063,395.7571623465211 C400.50254363261985,396.21646202819466 400.04892835294726,396.4461118690314 399.52141584726286,396.4461118690314 C398.9984508631792,396.4461118690314 398.53574054030514,396.2016825829923 398.1332848786408,395.712824010914 C397.73082921697636,395.2239654388358 397.5296013861442,394.5134151887221 397.5296013861442,393.581173260573 M408.93997754424174,390.89358799454294 C408.485225384169,390.5070486584811 408.04752643009897,390.23419736243744 407.6268806820317,390.075034106412 C407.20623493396437,389.9158708503865 406.7548934150921,389.8362892223738 406.272856125415,389.8362892223738 C405.47703984528766,389.8362892223738 404.86539818998983,390.03069577080487 404.4379311595214,390.4195088676671 C404.01046412905305,390.80832196452934 403.7967306138188,391.3051386994089 403.7967306138188,391.9099590723056 C403.7967306138188,392.2646657571624 403.8774491222318,392.5886766712142 404.0388861390576,392.8819918144611 C404.20032315588344,393.1753069577081 404.41178291031724,393.4106412005457 404.6732654023591,393.5879945429741 C404.9347478944009,393.7653478854025 405.22919991804804,393.8994997726239 405.5566214733004,393.9904502046385 C405.797640118139,394.05411550704866 406.1614418461972,394.11550704865846 406.64802665747504,394.174624829468 C407.63938636643365,394.2928603910869 408.3692635833504,394.4338335607094 408.8376583082254,394.5975443383356 C408.84220582982607,394.76580263756256 408.84447959062646,394.8726693951796 408.84447959062646,394.9181446111869 C408.84447959062646,395.41837198726694 408.7285177898079,395.77080491132335 408.49659418817083,395.9754433833561 C408.1828151977206,396.2528422010005 407.71669423364597,396.39154160982264 407.09823129594713,396.39154160982264 C406.52069605265467,396.39154160982264 406.09436590258645,396.29035925420646 405.8192408457424,396.0879945429741 C405.5441157888984,395.8856298317417 405.34061419726584,395.5275125056844 405.20873607084474,395.0136425648021 L404.0081903682527,395.1773533424284 C404.1173308866701,395.6912232833106 404.2969579898989,396.106184629377 404.5470716779389,396.4222373806275 C404.7971853659789,396.7382901318781 405.15871333323673,396.98158253751706 405.63165557971246,397.15211459754437 C406.1045978261881,397.3226466575716 406.65257417907577,397.4079126875853 407.27558463837545,397.4079126875853 C407.8940475760744,397.4079126875853 408.39654871295477,397.33515234197364 408.78308804901667,397.1896316507503 C409.16962738507846,397.0441109595271 409.45384748512396,396.8610732150978 409.63574834915306,396.6405184174625 C409.81764921318216,396.4199636198272 409.9449798180026,396.1414279217826 410.0177401636142,395.80491132332884 C410.0586678580208,395.5957253296953 410.079131705224,395.2182810368349 410.079131705224,394.6725784447476 L410.079131705224,393.0354706684857 C410.079131705224,391.894042746703 410.1052799544282,391.17212369258755 410.15757645283657,390.86971350613914 C410.2098729512449,390.5673033196908 410.3133290676615,390.2773988176444 410.46794480208627,390 L409.18554371068103,390 C409.0582131058607,390.25466120964074 408.97635771704756,390.5525238744884 408.93997754424174,390.89358799454294 M408.8376583082254,393.6357435197817 C408.39200119135404,393.4538426557526 407.72351551604714,393.2992269213279 406.83220128230454,393.1718963165075 C406.3274263846238,393.0991359708958 405.97044593896663,393.0172805820828 405.7612599453331,392.9263301500682 C405.55207395169975,392.8353797180537 405.39063693487384,392.7023647112324 405.27694889485565,392.52728512960437 C405.16326085483746,392.3522055479764 405.1064168348284,392.15779899954526 405.1064168348284,391.94406548431107 C405.1064168348284,391.6166439290587 405.2303367984482,391.343792633015 405.47817672568783,391.1255115961801 C405.7260166529275,390.9072305593452 406.08868150058555,390.79809004092766 406.56617126866195,390.79809004092766 C407.0391135151376,390.79809004092766 407.4597592632049,390.9015461573443 407.8281085128639,391.10845839017736 C408.1964577625228,391.3153706230105 408.4670352977661,391.5984538426557 408.6398411185937,391.95770804911325 C408.7717192450148,392.2351068667576 408.8376583082254,392.64438381082306 408.8376583082254,393.1855388813097 Z M411.51679299292596,392.162346521146 L412.7309812603203,392.35334242837655 C412.79919408433113,391.8667576170987 412.9890531111615,391.49386084583904 413.30055834081134,391.2346521145975 C413.6120635704612,390.9754433833561 414.0474887637308,390.84583901773533 414.6068339206204,390.84583901773533 C415.1707265991106,390.84583901773533 415.58909858637753,390.9606639381537 415.8619498824212,391.19031377899046 C416.13480117846484,391.4199636198272 416.27122682648667,391.68940427467027 416.27122682648667,391.9986357435198 C416.27122682648667,392.2760345611642 416.1507175040674,392.4943155979991 415.9096988592288,392.65347885402457 C415.74144056000193,392.76261937244203 415.323068572735,392.90131878126425 414.654582897428,393.0695770804911 C413.7541736204839,393.2969531605275 413.1300262807841,393.493633469759 412.78214087832845,393.65961800818553 C412.43425547587276,393.82560254661206 412.17049922303056,394.05525238744883 411.99087211980185,394.34856753069573 C411.8112450165731,394.6418826739427 411.7214314649587,394.9658935879945 411.7214314649587,395.32060027285127 C411.7214314649587,395.6434743065029 411.7953286909705,395.94247385175083 411.9431231429942,396.2175989085948 C412.0909175950178,396.49272396543887 412.29214542585,396.7212369258754 412.5468066354907,396.9031377899045 C412.73780254272134,397.0441109595271 412.998148154363,397.16348340154616 413.32784347041576,397.26125511596183 C413.6575387864685,397.35902683037745 414.01110859092506,397.4079126875853 414.38855288378545,397.4079126875853 C414.95699308387645,397.4079126875853 415.4560835795562,397.3260572987721 415.885824370825,397.162346521146 C416.3155651620938,396.9986357435198 416.6327547937445,396.7769440654843 416.8373932657772,396.4972714870396 C417.04203173780996,396.2175989085948 417.1830049074325,395.84356525693494 417.26031277464494,395.37517053206 L416.05976707205286,395.2114597544338 C416.00519681284413,395.5843565256935 415.8471704372188,395.87539790814003 415.58568794517697,396.08458390177356 C415.32420545313516,396.293769895407 414.954719323076,396.39836289222376 414.4772295549996,396.39836289222376 C413.91333687650945,396.39836289222376 413.510881214845,396.3051386994089 413.26986257000647,396.118690313779 C413.02884392516785,395.93224192814915 412.9083346027486,395.7139608913143 412.9083346027486,395.4638472032742 C412.9083346027486,395.3046839472488 412.95835734035666,395.1614370168258 413.0584028155726,395.0341064120055 C413.1584482907886,394.9022282855844 413.31533778601374,394.7930877671669 413.5290713012479,394.70668485675304 C413.6518543844676,394.66120964074577 414.0133823517254,394.55661664392903 414.61365520302144,394.39290586630284 C415.4822318287604,394.16098226466573 416.0881890820574,393.9711232378354 416.4315269629123,393.8233287858117 C416.7748648437672,393.6755343337881 417.04430549861036,393.4606639381537 417.23984892744164,393.1787175989086 C417.4353923562729,392.8967712596635 417.5331640706886,392.54661209640744 417.5331640706886,392.12824010914056 C417.5331640706886,391.7189631650751 417.4137916286695,391.3335607094134 417.1750467446313,390.97203274215553 C416.93630186059306,390.61050477489766 416.59182709933793,390.3308321964529 416.14162246086596,390.13301500682127 C415.69141782239393,389.93519781718965 415.1820954031124,389.8362892223738 414.61365520302144,389.8362892223738 C413.67231823167083,389.8362892223738 412.95494669915604,390.03183265120515 412.4615406054771,390.4229195088676 C411.9681345117982,390.81400636653024 411.6532186409478,391.393815370623 411.51679299292596,392.162346521146 M418.5575253024271,392.162346521146 L419.7717135698214,392.35334242837655 C419.83992639383234,391.8667576170987 420.0297854206627,391.49386084583904 420.34129065031254,391.2346521145975 C420.65279587996235,390.9754433833561 421.088221073232,390.84583901773533 421.6475662301215,390.84583901773533 C422.21145890861175,390.84583901773533 422.6298308958787,390.9606639381537 422.90268219192234,391.19031377899046 C423.175533487966,391.4199636198272 423.3119591359878,391.68940427467027 423.3119591359878,391.9986357435198 C423.3119591359878,392.2760345611642 423.19144981356857,392.4943155979991 422.95043116872995,392.65347885402457 C422.7821728695031,392.76261937244203 422.3638008822361,392.90131878126425 421.69531520692914,393.0695770804911 C420.79490592998513,393.2969531605275 420.17075859028523,393.493633469759 419.8228731878296,393.65961800818553 C419.47498778537397,393.82560254661206 419.2112315325317,394.05525238744883 419.031604429303,394.34856753069573 C418.85197732607423,394.6418826739427 418.76216377445985,394.9658935879945 418.76216377445985,395.32060027285127 C418.76216377445985,395.6434743065029 418.83606100047166,395.94247385175083 418.98385545249533,396.2175989085948 C419.13164990451895,396.49272396543887 419.33287773535113,396.7212369258754 419.5875389449919,396.9031377899045 C419.7785348522225,397.0441109595271 420.03888046386413,397.16348340154616 420.3685757799169,397.26125511596183 C420.69827109596963,397.35902683037745 421.0518409004262,397.4079126875853 421.42928519328666,397.4079126875853 C421.9977253933775,397.4079126875853 422.49681588905736,397.3260572987721 422.92655668032614,397.162346521146 C423.3562974715949,396.9986357435198 423.67348710324563,396.7769440654843 423.8781255752784,396.4972714870396 C424.0827640473111,396.2175989085948 424.22373721693367,395.84356525693494 424.3010450841461,395.37517053206 L423.100499381554,395.2114597544338 C423.0459291223452,395.5843565256935 422.88790274672,395.87539790814003 422.6264202546781,396.08458390177356 C422.36493776263626,396.293769895407 421.99545163257716,396.39836289222376 421.51796186450076,396.39836289222376 C420.95406918601054,396.39836289222376 420.5516135243462,396.3051386994089 420.3105948795076,396.118690313779 C420.06957623466906,395.93224192814915 419.94906691224975,395.7139608913143 419.94906691224975,395.4638472032742 C419.94906691224975,395.3046839472488 419.99908964985775,395.1614370168258 420.09913512507376,395.0341064120055 C420.19918060028976,394.9022282855844 420.35607009551484,394.7930877671669 420.5698036107491,394.70668485675304 C420.69258669396874,394.66120964074577 421.0541146612266,394.55661664392903 421.6543875125226,394.39290586630284 C422.5229641382616,394.16098226466573 423.1289213915585,393.9711232378354 423.47225927241345,393.8233287858117 C423.8155971532684,393.6755343337881 424.0850378081115,393.4606639381537 424.2805812369428,393.1787175989086 C424.47612466577414,392.8967712596635 424.57389638018975,392.54661209640744 424.57389638018975,392.12824010914056 C424.57389638018975,391.7189631650751 424.4545239381706,391.3335607094134 424.21577905413244,390.97203274215553 C423.97703417009427,390.61050477489766 423.6325594088391,390.3308321964529 423.18235477036706,390.13301500682127 C422.7321501318951,389.93519781718965 422.22282771261354,389.8362892223738 421.6543875125226,389.8362892223738 C420.713050541172,389.8362892223738 419.9956790086572,390.03183265120515 419.5022729149782,390.4229195088676 C419.00886682129936,390.81400636653024 418.69395095044894,391.393815370623 418.5575253024271,392.162346521146" style="fill:#000000;fill-rule:evenodd;"/>
        </g>
        <!-- Text: Edit -->
        <g>
            <path d="M320,390 L320,400 L327.2305593451569,400 L327.2305593451569,398.81991814461117 L321.3233287858117,398.81991814461117 L321.3233287858117,395.7571623465211 L326.8553888130969,395.7571623465211 L326.8553888130969,394.58390177353346 L321.3233287858117,394.58390177353346 L321.3233287858117,391.18008185538883 L327.46248294679395,391.18008185538883 L327.46248294679395,390 Z M334.0788264725837,390 L334.0788264725837,390.91405184174624 C333.6195267909103,390.19554342883123 332.9442198332023,389.8362892223738 332.0529055994597,389.8362892223738 C331.4753703561672,389.8362892223738 330.9444472092823,389.9954524783993 330.46013615880486,390.3137789904502 C329.9758251083273,390.63210550250113 329.6006545762673,391.0766257389722 329.3346245626247,391.64733969986355 C329.06859454898216,392.2180536607549 328.93557954216084,392.87403365165983 328.93557954216084,393.6152796725784 C328.93557954216084,394.33833560709417 329.05608886458015,394.9943155979991 329.2971075094187,395.58321964529335 C329.53812615425727,396.17212369258755 329.89965412151514,396.6234652114598 330.38169141119226,396.93724420190995 C330.8637287008694,397.25102319236015 331.4026100105556,397.4079126875853 331.9983353402509,397.4079126875853 C332.43489741392074,397.4079126875853 332.82371051078303,397.31582537517056 333.16477463083754,397.13165075034107 C333.50583875089217,396.9474761255116 333.7832375685365,396.70759436107323 333.9969710837707,396.41200545702594 L333.9969710837707,400 L335.21798063356607,400 L335.21798063356607,390 Z M330.19751678636277,393.6152796725784 C330.19751678636277,392.68758526603 330.39306021519405,391.99408822191907 330.7841470728567,391.5347885402456 C331.1752339305192,391.07548885857204 331.6368073729931,390.84583901773533 332.16886740027815,390.84583901773533 C332.70547494916406,390.84583901773533 333.161363989637,391.0652569349705 333.53653452169704,391.50409276944066 C333.91170505375703,391.9429286039109 334.0992903197871,392.612551159618 334.0992903197871,393.512960436562 C334.0992903197871,394.5043201455207 333.9082944125565,395.2319236016371 333.52630259809536,395.69577080491126 C333.1443107836343,396.15961800818553 332.67364229795896,396.39154160982264 332.11429714106947,396.39154160982264 C331.56859454898216,396.39154160982264 331.1127055085092,396.16871305138704 330.74663001965064,395.7230559345157 C330.38055453079204,395.2773988176444 330.19751678636277,394.57480673033194 330.19751678636277,393.6152796725784 M337.180880666152,398.5879945429741 L337.180880666152,400 L338.40871149834845,400 L338.40871149834845,398.5879945429741 Z M337.180880666152,390 L337.180880666152,397.2442019099591 L338.40871149834845,397.2442019099591 L338.40871149834845,390 Z M342.95609831323156,391.0982264665757 L343.1334516556599,390.0136425648021 C342.7878400140047,389.9408822191906 342.47860854515517,389.9045020463847 342.2057572491115,389.9045020463847 C341.7601001322402,389.9045020463847 341.4144884905849,389.974988631196 341.1689223241456,390.1159618008185 C340.9233561577063,390.2569349704411 340.7505503368787,390.4422464756708 340.6505048616626,390.6718963165075 C340.5504593864467,390.9015461573443 340.5004366488387,391.3847203274216 340.5004366488387,392.1214188267394 L340.5004366488387,396.2892223738063 L339.60002737189456,396.2892223738063 L339.60002737189456,397.2442019099591 L340.5004366488387,397.2442019099591 L340.5004366488387,399.03819918144615 L341.721446198634,399.77489768076396 L341.721446198634,397.2442019099591 L342.95609831323156,397.2442019099591 L342.95609831323156,396.2892223738063 L341.721446198634,396.2892223738063 L341.721446198634,392.0532060027285 C341.721446198634,391.7030468394725 341.7430469262375,391.47794452023646 341.78624838144435,391.3778990450204 C341.8294498366513,391.27785356980445 341.89993642146254,391.19827194179175 341.99770813587816,391.13915416098223 C342.0954798502939,391.0800363801728 342.2353161395162,391.05047748976807 342.4172170035453,391.05047748976807 C342.55364265156715,391.05047748976807 342.7332697547959,391.06639381537065 342.95609831323156,391.0982264665757" style="fill:#000000;fill-rule:evenodd;"/>
        </g>
    </g>
</svg>
